<svg width="476" height="377" viewBox="0 0 476 377" fill="none" xmlns="http://www.w3.org/2000/svg">
<path d="M453.949 232.093L335.607 417.449L149.119 300.9C136.857 293.386 126.284 283.415 118.066 271.615C109.847 259.814 104.161 246.44 101.365 232.334C98.5693 218.228 98.7244 203.696 101.821 189.653C104.917 175.61 110.888 162.36 119.356 150.738C127.825 139.116 138.608 129.373 151.027 122.123C163.446 114.873 177.232 110.273 191.516 108.612C205.8 106.952 220.273 108.267 234.024 112.475C247.775 116.683 260.506 123.692 271.415 133.062C277.296 119.988 285.812 108.269 296.431 98.6381C307.049 89.0072 319.541 81.6717 333.125 77.0907C346.709 72.5096 361.092 70.7817 375.374 72.0151C389.657 73.2484 403.531 77.4165 416.128 84.2584C428.726 91.1003 439.775 100.469 448.585 111.777C457.395 123.086 463.777 136.092 467.329 149.98C470.882 163.868 471.53 178.34 469.233 192.49C466.935 206.641 461.741 220.164 453.977 232.215" stroke="#232528" stroke-width="2" stroke-linecap="round" stroke-linejoin="round"/>
<path d="M271.387 132.94L219.572 214.966C216.623 219.637 215.649 225.288 216.865 230.676C218.082 236.065 221.388 240.75 226.058 243.701L239.584 252.245C256.771 263.102 279.532 257.965 290.389 240.777L306.124 215.868C310.77 208.504 316.821 202.128 323.933 197.104C331.044 192.08 339.077 188.508 347.57 186.591C356.063 184.674 364.851 184.449 373.431 185.931C382.011 187.413 390.215 190.571 397.573 195.226L453.619 230.63M325.126 323.706L374.944 355.176M364.463 261.433L414.282 292.903" stroke="#232528" stroke-width="2" stroke-linecap="round" stroke-linejoin="round"/>
</svg>
