<svg width="412" height="377" viewBox="0 0 412 377" fill="none" xmlns="http://www.w3.org/2000/svg">
<path d="M427.246 249.411L405.794 168.886C382.098 79.9382 290.788 27.044 201.841 50.7397C112.893 74.4353 59.9986 165.745 83.6942 254.693L109.436 351.323" stroke="#0834C4" stroke-width="1.5"/>
<path d="M193.997 280.278C191.518 270.969 190.278 266.315 188.18 262.906C185.884 259.089 182.629 255.94 178.738 253.771C174.847 251.603 170.455 250.492 166.001 250.549C162.146 250.645 157.82 252.211 149.123 255.304C134.066 260.678 126.519 263.361 120.89 267.482C107.9 276.928 100.182 292.369 100.118 309.03C100.096 316.262 102.246 324.331 106.553 340.5L107.351 343.496C111.77 360.084 113.976 368.362 117.823 374.84C121.455 381.062 126.349 386.455 132.19 390.674C138.031 394.892 144.689 397.843 151.738 399.335C158.888 400.794 167.058 399.997 183.403 398.42C194.245 397.36 199.679 396.843 203.651 394.854C207.553 392.855 210.869 389.878 213.276 386.214C215.683 382.549 217.098 378.323 217.382 373.948C217.727 369.354 216.26 363.846 213.33 352.847L193.997 280.278ZM322.837 245.955C320.358 236.646 319.118 231.992 319.242 227.992C319.334 223.538 320.591 219.186 322.888 215.37C325.185 211.553 328.442 208.405 332.334 206.238C335.726 204.403 340.257 203.61 349.324 201.971C365.076 199.137 372.957 197.71 379.89 198.485C395.858 200.216 410.235 209.771 418.578 224.192C422.196 230.455 424.345 238.524 428.653 254.693L429.451 257.689C433.87 274.277 436.075 282.555 435.961 290.088C435.905 297.293 434.343 304.406 431.375 310.971C428.407 317.537 424.098 323.408 418.726 328.21C413.25 333.032 405.766 336.405 390.803 343.169C380.87 347.643 375.9 349.898 371.464 350.149C367.085 350.356 362.727 349.423 358.816 347.442C354.905 345.461 351.576 342.498 349.153 338.844C346.567 335.031 345.1 329.524 342.17 318.524L322.837 245.955Z" stroke="#0834C4" stroke-width="1.5"/>
<path d="M221.147 123.212L242.599 203.737M275.898 134.498L284.478 166.708M179.268 160.241L187.848 192.451" stroke="#0834C4" stroke-width="1.5" stroke-linecap="round"/>
</svg>
